# xmcd
#
# Track frame offsets:
#	150
#	7470
#	9720
#	13655
#	16017
#	18067
#	21710
#	26797
#	30632
#	33967
#	36045
#	38202
#	40772
#	42245
#	44192
#	46277
#	50670
#	53657
#	55040
#	57312
#	58670
#	61870
#	98507
#	115457
#	140592
#	143870
#	146310
#	148292
#	149767
#	180127
#
# Disc length: 2762 seconds
#
# Revision: 0
# Processed by: cddbd v1.4PL0 Copyright (c) Steve Scherf et al.
# Submitted via: EasyCDDAExtractor 4.5.2.1
#
DISCID=ad0ac81e
DTITLE=Various Artist - Mountain Music Bluegrass Style
DYEAR=1900
DGENRE=Country
TTITLE0=Katy Hill - Tex Logan
TTITLE1=Katy Cline - Stover, Lilly and Anthony
TTITLE2=Short Life Of Trouble - Earl Taylor and the Stoney Mountain Boys
TTITLE3=The Philadelphia Lawyer - Bob Baker And The Pike Country Boys
TTITLE4=Little Willie - Bob Baker and PCB
TTITLE5=Leather Britches - Smiley Hobbs
TTITLE6=Natchez Under The hill - Tex Logan
TTITLE7=Old Joe Clark - Yellin, Seeger and Weissberg
TTITLE8=There Ain't Nobody Gonna Miss Me When I'm Gone - Stover, Lilly and Antho
TTITLE8=ny
TTITLE9=White House Blues - Earl Taylor and the Stoney Mountain Boys
TTITLE10=They're At Rest Together - Earl Tayloe and the SMB
TTITLE11=Foggy Mountain Top - Earl Taylor and the SMB
TTITLE12=Nine Pound Hammer - Smiley Hobbs
TTITLE13=Cricket on the Hearth - Anthony and Stover
TTITLE14=New River Train - Anthony, Seeger and Yellin
TTITLE15=Fox Chase - Earl Taylor and the SMB
TTITLE16=Feast Here Tonight - Bob Baker and the PCB
TTITLE17=Snow Dove - Bob Baker and the PCB
TTITLE18=Drifting Too Far From the Shore - Bob Baker and the PCB
TTITLE19=Rocky Run - Stuart, Kutkendall, Hobbs and gray
TTITLE20=Bile 'em Cabbage Down - Stover, Lilly and Anthony
TTITLE21=All The Good Times Have Past and Gone - Earl Taylor and the SMB
TTITLE22=Sally ann - Earl Taylor and the SMB
TTITLE23=Bonus
TTITLE24=Bonus
TTITLE25=Bonus
TTITLE26=Bonus
TTITLE27=Bonus
TTITLE28=Bonus
TTITLE29=Bonus
EXTD=
EXTT0=
EXTT1=
EXTT2=
EXTT3=
EXTT4=
EXTT5=
EXTT6=
EXTT7=
EXTT8=
EXTT9=
EXTT10=
EXTT11=
EXTT12=
EXTT13=
EXTT14=
EXTT15=
EXTT16=
EXTT17=
EXTT18=
EXTT19=
EXTT20=
EXTT21=
EXTT22=
EXTT23=
EXTT24=
EXTT25=
EXTT26=
EXTT27=
EXTT28=
EXTT29=
PLAYORDER=
